<svg xmlns="http://www.w3.org/2000/svg" viewBox="0 0 23 23">
  <defs>
    <style>
      .cls-1 {
        fill: #0375b4;
      }
    </style>
  </defs>
  <title>icon-tag</title>
  <g id="Layer_2" data-name="Layer 2">
    <g id="Layer_1-2" data-name="Layer 1">
      <path class="cls-1" d="M22.37,10.15a2.17,2.17,0,0,1,0,3.05l-9.16,9.16a2.17,2.17,0,0,1-3.05,0L.63,12.85A2.08,2.08,0,0,1,0,11.32V2.16A2.08,2.08,0,0,1,.63.63,2.08,2.08,0,0,1,2.16,0h9.16a2.08,2.08,0,0,1,1.53.63Zm-1,2a.66.66,0,0,0,0-1L11.81,1.66a.6.6,0,0,0-.49-.22H2.16a.69.69,0,0,0-.72.72v9.16a.6.6,0,0,0,.22.49l9.52,9.52a.66.66,0,0,0,1,0ZM6.47,4.31A2.15,2.15,0,0,1,8.63,6.47,2.15,2.15,0,0,1,6.47,8.63,2.15,2.15,0,0,1,4.31,6.47,2.15,2.15,0,0,1,6.47,4.31Zm0,1.26A.89.89,0,0,0,5.84,7.1.89.89,0,1,0,7.1,5.84.86.86,0,0,0,6.47,5.57Z"/>
    </g>
  </g>
</svg>
