<svg xmlns="http://www.w3.org/2000/svg" viewBox="0 0 23 17.25">
  <defs>
    <style>
      .cls-1 {
        fill: #0375b4;
      }
    </style>
  </defs>
  <title>icon-graph</title>
  <g id="Layer_2" data-name="Layer 2">
    <g id="Layer_1-2" data-name="Layer 1">
      <path class="cls-1" d="M22.84,16a.52.52,0,0,1,.16.38v.36a.54.54,0,0,1-.54.54H.54a.52.52,0,0,1-.38-.16A.52.52,0,0,1,0,16.71V.54A.52.52,0,0,1,.16.16.52.52,0,0,1,.54,0H.9a.52.52,0,0,1,.38.16.52.52,0,0,1,.16.38V15.81h21A.52.52,0,0,1,22.84,16ZM7.19,8.89a.32.32,0,0,0-.27-.27H6a.32.32,0,0,0-.27.27v3.77a.32.32,0,0,0,.27.27h.9a.32.32,0,0,0,.27-.27ZM11.5,3.14a.32.32,0,0,0-.27-.27h-.9a.32.32,0,0,0-.27.27v9.52a.32.32,0,0,0,.27.27h.9a.32.32,0,0,0,.27-.27ZM15.81,6a.32.32,0,0,0-.27-.27h-.9a.32.32,0,0,0-.27.27v6.65a.32.32,0,0,0,.27.27h.9a.32.32,0,0,0,.27-.27Zm4.31-4.31A.26.26,0,0,0,20,1.53a.26.26,0,0,0-.18-.09H19a.26.26,0,0,0-.18.09.26.26,0,0,0-.09.18v11a.32.32,0,0,0,.27.27h.9a.32.32,0,0,0,.27-.27Z"/>
    </g>
  </g>
</svg>
