<svg xmlns="http://www.w3.org/2000/svg" viewBox="0 0 17.25 23">
  <defs>
    <style>
      .cls-1 {
        fill: #0375b4;
      }
    </style>
  </defs>
  <title>icon-path_1</title>
  <g id="Layer_2" data-name="Layer 2">
    <g id="Layer_1-2" data-name="Layer 1">
      <path class="cls-1" d="M17.25,6.47a3.51,3.51,0,0,1-.79,2.25,3.46,3.46,0,0,1-2,1.26,4.35,4.35,0,0,1-.85,2.67,4.25,4.25,0,0,1-2.25,1.42,15.92,15.92,0,0,1-2.83.45q-1.17.13-1.71.22a5.15,5.15,0,0,0-1.42.4,1.75,1.75,0,0,0-.83.81,3.49,3.49,0,0,1,1.91,1.28,3.58,3.58,0,0,1-.31,4.72A3.46,3.46,0,0,1,3.59,23a3.46,3.46,0,0,1-2.54-1.06A3.46,3.46,0,0,1,0,19.41a3.51,3.51,0,0,1,.81-2.29A3.35,3.35,0,0,1,2.88,15.9V7.1A3.35,3.35,0,0,1,.81,5.88,3.51,3.51,0,0,1,0,3.59,3.46,3.46,0,0,1,1.06,1.06,3.46,3.46,0,0,1,3.59,0,3.46,3.46,0,0,1,6.13,1.06,3.46,3.46,0,0,1,7.19,3.59a3.51,3.51,0,0,1-.81,2.29A3.35,3.35,0,0,1,4.31,7.1v7a3,3,0,0,1,.45-.27,6.87,6.87,0,0,1,1.71-.49q.63-.13,1.89-.27a16.49,16.49,0,0,0,2.38-.31,3.11,3.11,0,0,0,1.68-1A3,3,0,0,0,13,10a3.66,3.66,0,0,1-2.09-1.26,3.46,3.46,0,0,1-.83-2.29,3.46,3.46,0,0,1,1.06-2.54,3.58,3.58,0,0,1,5.08,0A3.46,3.46,0,0,1,17.25,6.47ZM1.44,3.59a2.08,2.08,0,0,0,.63,1.53,2.08,2.08,0,0,0,1.53.63,2.08,2.08,0,0,0,1.53-.63,2.08,2.08,0,0,0,.63-1.53,2.08,2.08,0,0,0-.63-1.53,2.08,2.08,0,0,0-1.53-.63,2.08,2.08,0,0,0-1.53.63A2.08,2.08,0,0,0,1.44,3.59ZM5.75,19.41a2.08,2.08,0,0,0-.63-1.53,2.08,2.08,0,0,0-1.53-.63,2.08,2.08,0,0,0-1.53.63,2.17,2.17,0,0,0,0,3.05,2.08,2.08,0,0,0,1.53.63,2.08,2.08,0,0,0,1.53-.63A2.08,2.08,0,0,0,5.75,19.41ZM14.2,8.54v0a2.36,2.36,0,0,0,1.17-.79,2.06,2.06,0,0,0,.45-1.33,2.16,2.16,0,0,0-3.68-1.53,2.08,2.08,0,0,0-.63,1.53,2.15,2.15,0,0,0,2.16,2.16Z"/>
    </g>
  </g>
</svg>
